<?xml version="1.0" encoding="UTF-8"?>
<svg fill="none" viewBox="0 0 91 120" xmlns="http://www.w3.org/2000/svg">
<path d="m13.169 107.38c0 1.774-1.0107 3.212-2.2566 3.212-1.246 0-2.2566-1.438-2.2566-3.212 0-1.773 1.0106-3.21 2.2566-3.21 1.2459 0 2.2566 1.437 2.2566 3.21z" fill="#04005D"/>
<path d="m13.657 107.38c0 1.774-1.0106 3.212-2.2565 3.212-1.246 0-2.2566-1.438-2.2566-3.212 0-1.773 1.0093-3.21 2.2566-3.21 1.2472 0 2.2565 1.439 2.2565 3.21z" fill="#060075"/>
<path d="m12.368 107.74c0 0.789-0.4331 1.428-0.9678 1.428s-0.9664-0.639-0.9664-1.428 0.4331-1.426 0.9664-1.426c0.5334 0 0.9678 0.639 0.9678 1.426z" fill="url(#i)"/>
<path d="m10.434 103.74v3.726c0 0.547 0.3894 0.991 0.8698 0.991 0.2775 0 0.5383-0.151 0.7019-0.406l2.9414-4.588-4.5131 0.277z" fill="#DADFE5"/>
<path d="m36.438 104.53c0 1.773-1.0106 3.211-2.2566 3.211-1.2459 0-2.2565-1.438-2.2565-3.211s1.0093-3.21 2.2565-3.21c1.2473 0 2.2566 1.437 2.2566 3.21z" fill="#04005D"/>
<path d="m37.083 104.53c0 1.773-1.0093 3.211-2.2565 3.211-1.2473 0-2.2566-1.438-2.2566-3.211s1.0106-3.21 2.2566-3.21c1.2459 0 2.2565 1.438 2.2565 3.21z" fill="#060075"/>
<path d="m35.793 104.88c0 0.789-0.4331 1.428-0.9677 1.428-0.5347 0-0.9665-0.639-0.9665-1.428s0.4331-1.426 0.9665-1.426c0.5333 0 0.9677 0.638 0.9677 1.426z" fill="url(#h)"/>
<path d="m34.289 100.88v3.726c-3e-4 0.262 0.091 0.514 0.2539 0.7 0.163 0.186 0.3841 0.291 0.6146 0.291 0.2779 0 0.5392-0.151 0.7032-0.407l2.9415-4.588-4.5132 0.278z" fill="#DADFE5"/>
<path d="m10.346 104.17c-0.2991-0.015-0.53932-0.279-0.55593-0.61-0.01661-0.332 0.19581-0.624 0.49153-0.675l28.181-3.5227c1.5552-0.3133 2.8085-1.5923 3.2194-3.2853l11.81-48.757c0.6288-2.5961 2.6741-4.4631 5.0918-4.648l8.5725-0.5713c0.2162-0.032 0.4303 0.0727 0.5548 0.2713 0.1245 0.1985 0.1385 0.4576 0.0363 0.6713-0.1022 0.2136-0.3035 0.346-0.5215 0.3429l-8.5661 0.5714c-1.9203 0.1475-3.5442 1.6314-4.0423 3.6938l-11.805 48.748c-0.5344 2.1943-2.1674 3.8462-4.1864 4.2342l-28.215 3.536h-0.0657z" fill="#B3BBCB"/>
<path d="m29.842 84.907c-0.2582-4e-4 -0.4849-0.1926-0.5555-0.471l-6.5809-25.817c-0.0875-0.344 0.0903-0.7023 0.3972-0.8004 0.3068-0.098 0.6264 0.1013 0.7138 0.4453l6.5809 25.816c0.0426 0.1654 0.0245 0.3429-0.05 0.4934-0.0745 0.1504-0.1994 0.2614-0.3471 0.3083-0.0515 0.017-0.1048 0.0257-0.1584 0.0258z" fill="#B3BBCB"/>
<path d="m36.94 84.193c-0.2773 5e-4 -0.5146-0.2277-0.562-0.5403l-4.015-25.805c-0.0551-0.3555 0.1521-0.6947 0.4629-0.7578 0.3107-0.063 0.6073 0.1741 0.6624 0.5295l4.015 25.805c0.0543 0.3556-0.1528 0.6946-0.4635 0.7584-0.033 0.0062-0.0663 0.0096-0.0998 0.0101z" fill="#B3BBCB"/>
<path d="m40.626 82.766h-0.0224c-0.2944-0.0154-0.523-0.3147-0.5111-0.6693l0.8864-24.873c3e-3 -0.1717 0.0639-0.3345 0.1688-0.4509 0.105-0.1164 0.2447-0.1762 0.3871-0.1658 0.2947 0.0154 0.5236 0.3145 0.5123 0.6693l-0.8875 24.873c-0.0115 0.3447-0.247 0.617-0.5336 0.6167z" fill="#B3BBCB"/>
<path d="m20.736 86.013c-0.2526-3e-4 -0.4768-0.1784-0.5571-0.4426l-7.789-25.523c-0.0863-0.3334 0.0804-0.6828 0.3785-0.7931 0.298-0.1104 0.6221 0.0573 0.7357 0.3806l7.789 25.524c0.0629 0.1984 0.0344 0.4182-0.0764 0.5892s-0.2902 0.2718-0.4807 0.2702v-0.0057z" fill="#B3BBCB"/>
<path d="m87.92 45.654h-0.0994l-19.486-1.724c-0.4416-0.0077-0.8426-0.2791-1.0401-0.7041-0.1975-0.4249-0.1586-0.9328 0.1007-1.3173 0.2594-0.3846 0.6962-0.5819 1.1331-0.5119l19.487 1.7226c0.6276 0.0631 1.0996 0.6435 1.0742 1.321-0.0255 0.6775-0.5394 1.2151-1.1698 1.2235v-0.0098z" fill="url(#g)"/>
<path d="m33.644 116.79c0 1.773-1.0106 3.211-2.2565 3.211-1.246 0-2.2566-1.438-2.2566-3.211 0-1.774 1.0106-3.21 2.2566-3.21 1.2459 0 2.2565 1.436 2.2565 3.21z" fill="#04005D"/>
<path d="m34.289 116.66c0 1.774-1.0106 3.21-2.2565 3.21-1.246 0-2.2566-1.436-2.2566-3.21 0-1.773 1.0106-3.211 2.2566-3.211 1.2459 0 2.2565 1.438 2.2565 3.211z" fill="#060075"/>
<path d="m33.207 116.45c0 0.789-0.4334 1.428-0.9671 1.428-0.5338 0-0.9672-0.639-0.9672-1.428s0.4321-1.426 0.9672-1.426c0.535 0 0.9671 0.643 0.9671 1.426z" fill="url(#f)"/>
<path d="m31.71 112.3v3.729c0 0.263 0.0917 0.515 0.2548 0.7 0.1631 0.186 0.3843 0.29 0.6148 0.29 0.2776 0 0.5385-0.151 0.7017-0.407l2.9419-4.588-4.5132 0.276z" fill="#C1CAD4"/>
<path d="m54.276 114.28c0 1.774-1.0106 3.21-2.2565 3.21-1.246 0-2.2566-1.436-2.2566-3.21 0-1.773 1.0106-3.211 2.2566-3.211 1.2459 0 2.2565 1.438 2.2565 3.211z" fill="#04005D"/>
<path d="m54.921 114.28c0 1.773-1.0107 3.211-2.2566 3.211-1.246 0-2.2566-1.438-2.2566-3.211s1.0106-3.21 2.2566-3.21c1.2459 0 2.2566 1.437 2.2566 3.21z" fill="#060075"/>
<path d="m53.631 114c0 0.787-0.4331 1.426-0.9664 1.426s-0.9678-0.639-0.9678-1.426c0-0.788 0.4331-1.428 0.9678-1.428s0.9664 0.646 0.9664 1.428z" fill="url(#e)"/>
<path d="m52.342 110.15v3.735c0 0.547 0.3894 0.991 0.8698 0.991 0.2775 0 0.5382-0.151 0.7019-0.406l2.9414-4.589-4.5131 0.269z" fill="#C1CAD4"/>
<path d="m1.3039 60.647c-0.29706-0.023-0.52996-0.276-0.54055-0.587-0.010585-0.3111 0.20454-0.5807 0.49928-0.6257l50.253-3.7809c0.047-0.0026 0.0941 1e-4 0.1405 0.0081l20.805 3.7027c0.2135 0.0277 0.3952 0.1758 0.4728 0.3855s0.0387 0.447-0.1014 0.6176c-0.14 0.1707-0.3585 0.2471-0.5687 0.1988l-20.734-3.6919-50.184 3.7728h-0.04255z" fill="#B3BBCB"/>
<path d="m18.269 66.324-16.934-5.5742c-0.20828-0.059-0.3706-0.2403-0.42252-0.4722-0.051919-0.2318 0.014961-0.4766 0.17409-0.6372 0.15913-0.1606 0.38477-0.211 0.58736-0.1312l16.823 5.5441 53.837-5.829c0.1542-0.0187 0.3086 0.0324 0.4284 0.1419 0.1198 0.1094 0.1949 0.268 0.2082 0.4397 0.0151 0.1712-0.0318 0.3421-0.1302 0.4748-0.0984 0.1328-0.2402 0.2166-0.3943 0.2329l-53.952 5.8419c-0.0189 4e-4 -0.0378-5e-4 -0.0567-0.0029-0.0572-2e-4 -0.1141-0.0098-0.1688-0.0286z" fill="#D3D6DF"/>
<path d="m65.95 87.048c-0.0298-3e-4 -0.0594-0.0028-0.0889-0.0075l-20.436-3.6396-31.091 3.4681c-0.2144 0.0399-0.4301-0.0614-0.56-0.2631-0.1298-0.2016-0.1522-0.4702-0.0581-0.6969 0.0941-0.2268 0.2891-0.3741 0.5061-0.3825l31.165-3.4681c0.0479-0.0066 0.0963-0.0066 0.1442 0l20.507 3.6456c0.2984 0.0567 0.5098 0.3683 0.4871 0.7177-0.0228 0.3494-0.2723 0.6207-0.5746 0.6248v0.0015z" fill="#B3BBCB"/>
<path d="m28.543 90.244-10.25-24.2c-0.0984-0.2114-0.0858-0.466 0.0329-0.6638s0.3244-0.3071 0.5363-0.2849c0.2118 0.0222 0.3959 0.1724 0.4797 0.3914l10.074 23.788 36.488-3.6563c0.306-0.0105 0.5668 0.247 0.5959 0.5885 0.0292 0.3414-0.1833 0.6495-0.4857 0.7042l-36.893 3.7008c-0.0179 0.0024-0.0359 0.0033-0.0539 0.0029-0.2241 8e-4 -0.4285-0.1436-0.5244-0.3706z" fill="#D3D6DF"/>
<path d="m28.949 90.599c-0.0477 2e-4 -0.0954-0.0061-0.1418-0.0186l-14.734-3.7251c-0.1562-0.0439-0.289-0.1586-0.3668-0.3167l-12.962-26.122c-0.10886-0.2042-0.1095-0.4587-0.001673-0.6635s0.30688-0.327 0.51883-0.3187c0.21194 0.0083 0.40287 0.1459 0.49766 0.3587l12.842 25.874 14.487 3.6505c0.2841 0.0782 0.4714 0.3822 0.4358 0.7079-0.0355 0.3257-0.2826 0.5702-0.5752 0.5692v0.0043z" fill="#D3D6DF"/>
<path d="m22.651 74.918c-0.0556 1e-4 -0.111-0.0084-0.1644-0.0253l-16.144-5.1482c-0.31027-0.0987-0.48819-0.4524-0.3974-0.7899s0.41592-0.5311 0.72619-0.4323l16.04 5.1129 47.672-4.5215c0.2122-0.0283 0.4218 0.0716 0.5465 0.2605 0.1247 0.189 0.1448 0.437 0.0522 0.6467-0.0925 0.2097-0.2829 0.3478-0.4965 0.3601l-47.782 4.5342-0.0518 0.0028z" fill="#D3D6DF"/>
<path d="m26.441 84.906c-0.0532 3e-4 -0.1061-0.0079-0.1575-0.0241l-15.424-5.0566c-0.2008-0.0658-0.3564-0.252-0.4081-0.4885-0.0517-0.2364 0.0083-0.4871 0.1575-0.6577s0.3648-0.2351 0.5656-0.1693l15.322 5.0218 40.911-4.2105c0.2167-0.0415 0.435 0.0624 0.5653 0.2691 0.1303 0.2068 0.1507 0.4815 0.0527 0.7114s-0.2977 0.3762-0.5173 0.3788l-41.015 4.2181-0.0517 0.0075z" fill="#D3D6DF"/>
<path d="m36.287 89.902c-0.2571 1e-4 -0.4835-0.1872-0.5559-0.46l-6.5805-24.42c-0.0797-0.3358 0.0959-0.681 0.3968-0.7799s0.6184 0.0842 0.7175 0.4136l6.5792 24.42c0.0523 0.1945 0.0185 0.4049-0.0912 0.5676s-0.2824 0.2586-0.4659 0.2587z" fill="#D3D6DF"/>
<path d="m43.967 88.795c-0.2843 6e-4 -0.5277-0.2262-0.5769-0.5373l-3.9346-24.703c-0.0366-0.2293 0.0397-0.4629 0.2001-0.6127 0.1603-0.1499 0.3805-0.1933 0.5775-0.1138 0.1969 0.0794 0.3408 0.2696 0.3774 0.4988l3.9346 24.703c0.0565 0.3548-0.1564 0.6934-0.4757 0.7563-0.0339 0.0057-0.0681 0.0086-0.1024 0.0086z" fill="#D3D6DF"/>
<path d="m52.357 87.944c-0.3302-9e-4 -0.6026-0.2722-0.6216-0.619l-1.3199-24.493c-0.0371-0.2467 0.0624-0.4942 0.2566-0.638 0.1942-0.1439 0.4492-0.1591 0.6576-0.0392 0.2084 0.1198 0.3339 0.3539 0.3235 0.6035l1.32 24.493c0.0187 0.361-0.2441 0.6697-0.5873 0.6899l-0.0289 0.0029z" fill="#D3D6DF"/>
<path d="m60.074 87.048h-0.0338c-0.1694-0.0088-0.3283-0.0853-0.4418-0.2125s-0.1723-0.2948-0.1634-0.4658l1.3007-25.044c-0.012-0.2461 0.1159-0.4776 0.3294-0.5967 0.2136-0.119 0.4756-0.1049 0.6754 0.0364 0.1998 0.1414 0.3026 0.3853 0.2648 0.6287l-1.3007 25.043c-0.0164 0.3404-0.2931 0.6087-0.6306 0.6113z" fill="#D3D6DF"/>
<path d="m24.049 89.188c-0.2201 6e-4 -0.421-0.1405-0.5167-0.3628l-10.463-24.405c-0.1368-0.319-0.0172-0.7019 0.2671-0.8554 0.2843-0.1534 0.6256-0.0192 0.7624 0.2998l10.464 24.403c0.134 0.3175 0.0151 0.6968-0.2666 0.8504-0.0766 0.0441-0.1614 0.0679-0.2475 0.0694z" fill="#D3D6DF"/>
<path d="m18.244 87.754c-0.2141-2e-3 -0.4092-0.1396-0.5046-0.3559l-11.1-25.075c-0.10461-0.2076-0.09875-0.4634 0.01521-0.6646 0.11397-0.2012 0.3173-0.3147 0.52817-0.2947s0.39461 0.1701 0.47727 0.3899l11.095 25.077c0.0884 0.1996 0.0788 0.4366-0.0253 0.6263s-0.2879 0.305-0.4857 0.3047v-0.0071z" fill="#D3D6DF"/>
<path d="m31.473 113.45c-0.0736 0-0.1466-0.015-0.2152-0.045l-21.111-9.307c-0.29317-0.137-0.43399-0.509-0.31676-0.838 0.11722-0.328 0.44936-0.492 0.74716-0.368l20.972 9.25 25.467-3.458c1.8075-0.24 3.3035-1.674 3.782-3.625l13.958-56.317c0.6408-2.5742 2.6683-4.4232 5.0654-4.6193l7.4069-0.5972c0.3021 6e-3 0.5501 0.2671 0.5719 0.6019 0.0217 0.3348-0.19 0.6327-0.4881 0.6869l-7.4017 0.6014c-1.9046 0.1563-3.5156 1.625-4.0256 3.67l-13.959 56.318c-0.6048 2.459-2.4902 4.265-4.7679 4.567l-25.615 3.479h-0.0696z" fill="#D3D6DF"/>
<path d="m61.878 2.5988-43.072-2.5882c-3.5479-0.21376-6.4385 2.7011-6.4385 6.5112v26.337c0 3.8088 2.8906 6.9776 6.4385 7.0747l14.082 0.3875 6.4102 8.4544c0.2173 0.2865 0.5357 0.4529 0.872 0.4557s0.657-0.1583 0.8781-0.4411l6.3123-8.0719 14.522 0.3996c1.5581 0.0581 3.0704-0.5936 4.1893-1.8051s1.7482-2.8788 1.7432-4.6186v-25.152c-0.0044-3.6376-2.6512-6.7456-5.9369-6.9436z" fill="#9E8BD7"/>
<path d="m35.021 14.633c-0.3286 0.3466-0.4929 0.8584-0.4929 1.5355 0 0.661 0.168 1.1688 0.5038 1.5235 0.3359 0.3546 0.8104 0.532 1.4237 0.532 0.5914 0 1.0569-0.1794 1.3964-0.5381s0.5093-0.8645 0.5093-1.5174c0-0.6609-0.1661-1.1688-0.4983-1.5234-0.3323-0.3547-0.8014-0.532-1.4074-0.532-0.6279 0-1.1061 0.1733-1.4346 0.5199zm0 9.9873c-0.3286 0.3466-0.4929 0.8584-0.4929 1.5355 0 0.6529 0.168 1.1587 0.5038 1.5174 0.3359 0.3587 0.8104 0.5381 1.4237 0.5381 0.5987 0 1.066-0.1834 1.4019-0.5502 0.3358-0.3667 0.5038-0.8685 0.5038-1.5053 0-0.6609-0.1661-1.1687-0.4983-1.5234-0.3323-0.3547-0.8014-0.532-1.4074-0.532-0.6279 0-1.1061 0.1733-1.4346 0.5199z" clip-rule="evenodd" fill="#fff" fill-rule="evenodd"/>
<path d="m40.386 21.101c0-2.136 0.283-4.135 0.8488-5.997s1.3817-3.4943 2.4477-4.8968h2.738c-1.0295 1.5557-1.8071 3.2645-2.3328 5.1265s-0.7885 3.7764-0.7885 5.7431c0 1.9749 0.2683 3.8832 0.805 5.725 0.5366 1.8418 1.3014 3.5083 2.2944 4.9995h-2.7161c-1.0733-1.3702-1.891-2.9703-2.4532-4.8s-0.8433-3.7965-0.8433-5.9003z" fill="#fff"/>
<path d="m21.62 0.17285-2.701-0.1623c-3.5479-0.21376-6.4385 2.7011-6.4385 6.5112v26.337c0 3.8088 2.8906 6.9776 6.4385 7.0747l14.082 0.3875 6.4102 8.4544c0.2173 0.2865 0.5357 0.4529 0.872 0.4557s0.657-0.1583 0.8781-0.4411l1.3954-1.7844-5.0683-6.6846-14.082-0.3875c-3.548-0.0971-6.4386-3.2659-6.4386-7.0747v-26.337c0-3.1448 1.9693-5.6797 4.6521-6.3489zm30.246 40.666 10.129 0.2787c0.3966 0.0148 0.7902-0.0164 1.1752-0.0911l-11.209-0.3085-0.0945 0.1209z" clip-rule="evenodd" fill="#5D3EBC" fill-rule="evenodd"/>
<path d="m87.224 114.67c0.0831-0.47 1.1092-0.7 1.6182-0.209 0.2529 0.242 0.4298 0.545 0.2835 0.768-0.0534 0.08 0.2087 0.211 0 0.213-0.6949 0.01-1.9849-0.301-1.9017-0.772z" fill="url(#d)"/>
<path d="m88.368 114.87 0.8953-0.124c-0.4148-0.482-0.3375-2.016-0.3375-2.016l-0.9519 0.205s0.1082 0.421 0.2924 1.043c0.0679 0.293 0.102 0.592 0.1017 0.892z" fill="#FF9995"/>
<path d="m88.361 114.83s1.0761-0.206 1.1931-0.029 0.207 0.653-0.4757 0.641c-0.6827-0.011-0.7778-0.465-0.7174-0.612z" fill="url(#c)"/>
<path d="m75.143 115.97c0.0698-0.314 0.8059-0.464 1.1147 0.047 0.1533 0.253 0.2316 0.717 0.1121 0.895-0.0434 0.064 0.0951 0.223-0.0497 0.195-0.477-0.091-1.248-0.821-1.1771-1.137z" fill="url(#b)"/>
<path d="m75.867 116.3h1.1469c-0.4326-0.558-0.0525-2.14-0.0525-2.14l-1.237 0.078s0.059 0.453 0.1753 1.123c0.0329 0.313 0.0219 0.628-0.0327 0.939z" fill="#FF9995"/>
<path d="m73.587 78.578c-0.6467 2.3078 0 10.808 0 25.594 0 6.421 1.8825 10.527 2.1149 10.686 0.1212 0.013 0.2431 0.018 0.3649 0.016 0.3153-0.012 0.6277-0.068 0.9295-0.168 0.4174-0.077 1.3993-10.932 1.5424-14.906 0.0237-0.6442 1.5504-12.529 1.5504-12.529 0.4647 4.3992 1.7384 7.8534 2.2018 10.752 1.4886 9.3097 5.5894 15.23 5.8414 15.32 0.0499 0.022 0.5041 0.199 0.8756-0.064 0.0957-0.065 0.1722-0.159 0.2205-0.269 0.1313-0.109-0.0908-7.819-1.5663-14.733-2.1424-10.034-1.1576-13.86-1.8363-18.341-0.5868-3.8796-12.239-1.3565-12.239-1.3565z" fill="#B3BBCB"/>
<path d="m73.4 89.396c-0.1236-5.8368-0.1998-9.4359 0.1872-10.817 0 0 4.2082-0.9112 7.694-0.7964-3.1539 0.0925-6.4045 0.7964-6.4045 0.7964-0.3014 1.0754-0.1377 3.3404 0.1231 6.9487 0.2989 4.1354 0.7253 10.035 0.7253 17.931 0 5.904 0.8741 10.454 1.1956 11.272-0.2782 0.085-0.5648 0.133-0.8537 0.144-0.1219 2e-3 -0.2437-3e-3 -0.365-0.016-0.2323-0.159-2.1148-4.265-2.1148-10.686 0-5.9369-0.1043-10.86-0.1872-14.776zm6.5069-0.7012c0.0475-0.3711 0.0875-0.6842 0.1179-0.9214-0.0465-0.2403-0.0832-0.4821-0.1089-0.7253 0 0-0.0034 0.6456-9e-3 1.6467zm0.3832 0.1294c0.3108 2.0395 0.7679 3.8649 1.1827 5.5215 0.3321 1.3261 0.6371 2.5441 0.8182 3.6771 1.4887 9.3097 5.5894 15.23 5.8414 15.32 0.0499 0.022 0.5041 0.199 0.8756-0.064 0.0858-0.059 0.1561-0.14 0.2046-0.235-0.7235-1.286-2.9975-6.638-4.2975-14.767-0.2011-1.2576-1.0813-2.7095-2.0515-4.3097-0.9602-1.5838-2.0084-3.3128-2.5735-5.1424z" clip-rule="evenodd" fill="#7382A0" fill-rule="evenodd" opacity=".5"/>
<path d="m76.034 116.3s1.1296-0.096 1.2164 0.089c0.0867 0.186 0.1395 0.903-0.716 0.775-0.8555-0.127-0.5871-0.721-0.5004-0.864z" fill="url(#a)"/>
<path d="m85.35 60.648c0.2515 0.1079 4.079 1.8319 4.8663 6.3582 0.0635 0.3661 0.6781 4.26-1.6452 7.0024-2.61 3.0792-7.6384 3.0033-9.6362 0.4287-0.4007-0.5281-0.6907-1.1521-0.8484-1.8252l0.5264-1.5829c0.6417-0.8773 1.5148-1.0849 1.9813-1.2154 1.1493-0.3208 2.0178 0.2662 2.6758-0.3688 0.3643-0.3474 0.4372-0.848 0.5018-1.294 0.2198-1.5229-0.5382-2.4588-0.5934-3.3973-0.0412-0.7016-0.2574-2.2392 0.5511-3.2417 0.5089-0.635 1.2175-0.808 1.6205-0.864z" fill="#04005D"/>
<path d="m82.015 60.035c-1.4007-0.0455-4.1154-0.5484-5.8899 1.2062-0.031 0.0298-0.1746 0.2031-0.3531 0.4262-0.4734 0.6134-0.8931 1.2746-1.2532 1.9748-0.4505 0.9053-0.8038 1.865-1.0528 2.8599-0.4329 1.6281-0.7111 3.3012-0.8303 4.9923-0.3246 4.6883 0 6.8464 0.2884 8.3168 1.2675 0.7104 4.5267 1.989 8.4235 1.3582 1.4675-0.242 2.8869-0.7556 4.1982-1.5187-1.0088-3.3586-0.2173-5.1543 0.1565-6.8109 0.5328-2.3612 0.5419-2.1822 0.9803-4.0589 0.723-3.0943 0.842-6.2511 0.3453-6.9047-1.3412-1.7375-3.7571-1.8-5.0129-1.8412z" fill="#070080"/>
<path d="m81.155 59.983c-1.4772-0.1006-3.5712-0.1837-5.0299 1.2586-0.031 0.0298-0.1746 0.2031-0.3531 0.4262-0.4734 0.6134-0.8931 1.2746-1.2532 1.9748-0.4505 0.9053-0.8038 1.865-1.0528 2.8599-0.4329 1.6281-0.7111 3.3012-0.8303 4.9923-0.3246 4.6883 0 6.8464 0.2884 8.3168 1.1515 0.6454 3.9472 1.7599 7.3714 1.4853-2.4208-0.1913-4.3227-0.9813-5.2219-1.4853-0.2884-1.4704-0.613-3.6285-0.2884-8.3168 0.1192-1.6911 0.3974-3.3642 0.8303-4.9923 0.249-0.9949 0.6023-1.9546 1.0528-2.8599 0.3601-0.7002 0.7798-1.3614 1.2532-1.9748 0.1785-0.2231 0.3221-0.3964 0.3531-0.4262 0.8311-0.8218 1.8684-1.1483 2.8804-1.2586z" clip-rule="evenodd" fill="#04005D" fill-rule="evenodd"/>
<path d="m61.821 65.042c0.0319-0.3078 0.0587-0.9398-0.2197-1.6184-0.5439-1.3191-1.8557-1.8682-1.9461-1.7468-0.0483 0.0646 0.1986 0.4036 0.3176 0.5485 0.2483 0.3019 0.3627 0.282 0.4253 0.4486 0.1298 0.3416-0.294 0.5869-0.3264 1.1504-0.0233 0.4077 0.1631 0.8663 0.4981 1.1302 0.5543 0.4373 1.223 0.1017 1.2512 0.0875z" clip-rule="evenodd" fill="#FF9995" fill-rule="evenodd"/>
<path d="m78.303 60.841c-1.4047-0.9968-5.2902 1.9851-6.1912 2.9888-1.7018 1.8957-3.223 4.7972-5.7539 4.3838-1.7414-0.2845-4.405-3.8051-4.7332-3.8434l-0.7504 0.4344c-0.2655 0.0931-0.5172 9.3686 4.8648 10.063 1.1356 0.1513 2.1645-0.0336 3.9248-0.6942 2.9813-1.1208 5.2572-2.1705 7.2688-4.7392 0.0912-0.1179 0.1752-0.2423 0.2513-0.3724 1.496-2.5092 2.4751-7.2614 1.119-8.2206z" fill="#070080"/>
<path d="m72.487 63.457c-0.1537 0.1419-0.281 0.2688-0.3754 0.3741-0.3605 0.4015-0.7128 0.8481-1.0683 1.2988-0.1963 0.2487-0.3935 0.4988-0.5936 0.7431 0.5549-0.5412 1.0702-1.1944 1.5789-1.8392 0.1531-0.1941 0.3056-0.3875 0.4584-0.5768zm-9.5726 2.1848c-0.0631 2.2523 0.5269 8.3259 4.6337 9.1693-0.6534 0.1239-1.2167 0.1365-1.8092 0.0576-5.382-0.6942-5.1303-9.9698-4.8648-10.063l0.7504-0.4344c0.1011 0.0118 0.4239 0.3542 0.8731 0.8306 0.1292 0.137 0.2689 0.2852 0.4168 0.4398z" clip-rule="evenodd" fill="#04005D" fill-rule="evenodd"/>
<path d="m77.903 58.594c-0.4443-0.8193-0.246-1.7541-0.2023-1.956 0.1877-0.8468 0.2565-0.9751 0.3967-1.154l0.2036-0.2337c0.0084-0.0079 0.0172-0.0151 0.0265-0.0216 0.2474-0.1364 0.5115-0.2335 0.7841-0.2885 0.3637-0.0202 1.1055 1.405 1.53 3.6062l0.1031 0.2381c0.2103 0.4991 0.3967 0.9895 0.5462 1.467 1.5305 0.2048 2.0325 0.5132 1.9765 0.6803-0.0874 0.2607-0.989 0.4331-2.053 0.5172-1.2988 0.1025-3.5553 0-3.5553-0.3721 0-0.2033 0.6684-0.4289 1.7686-0.6206-0.0463-0.3519-0.0913-0.7039-0.1323-1.0559-0.16-0.0361-1.0658-0.2034-1.3924-0.8064z" fill="#FF9995"/>
<path d="m77.735 54.896c0.1618 0.6776 0.6173 1.3114 0.7895 1.3887 0.103 0.0508 0.1982 0.1196 0.2821 0.204 0.0202 0.0208 0.038 0.0443 0.0531 0.0699 0.233 0.3876-0.2511 1.071-0.0893 1.2269 0.1165 0.1137 0.4828-0.1952 0.5604-0.0903 0.0777 0.1049-0.2135 0.4371-0.1294 0.5552 0.0634 0.0903 0.2511-0.0656 0.4206 0.0495 0.0842 0.0583 0.0803 0.1268 0.2058 0.3424 0.0656 0.1154 0.1406 0.2237 0.2239 0.3235 0.3029 0.3352 0.9267 0.3031 1.0018 0.1108 0.022-0.0539-0.0142-0.0831-0.0181-0.2419 0.0015-0.1126 0.0167-0.2244 0.0453-0.3322 0.0673-0.2652 0.3236-0.5173 0.563-0.8467 0.4452-0.6105 0.5048-1.036 0.5177-1.1773 0-0.051 0-0.0889 0.0078-0.1151 0.0246-0.5436-0.1476-1.278-0.4543-1.6685-0.5177-0.6557-1.183-0.0714-1.9777-0.6353-0.9163-0.6499-0.7765-1.9599-1.1894-1.9744-0.4595-0.0161-1.1144 1.5577-0.8128 2.8108z" fill="#04005D"/>
<path d="m79.052 57.184c0.1028-0.1942 0.4453-0.0966 0.5238 0.1132 0.0785 0.2097-0.1213 0.4838-0.4082 0.4952-0.2868 0.0115-0.2554-0.3478-0.1156-0.6084z" fill="#FF9995"/>
<defs>
<linearGradient id="i" x1="10.434" x2="12.368" y1="109.16" y2="109.16" gradientUnits="userSpaceOnUse">
<stop stop-color="#40447E" offset="0"/>
<stop stop-color="#3C3B6B" offset="1"/>
</linearGradient>
<linearGradient id="h" x1="33.859" x2="35.793" y1="106.31" y2="106.31" gradientUnits="userSpaceOnUse">
<stop stop-color="#40447E" offset="0"/>
<stop stop-color="#3C3B6B" offset="1"/>
</linearGradient>
<linearGradient id="g" x1="67.248" x2="89.103" y1="45.652" y2="45.652" gradientUnits="userSpaceOnUse">
<stop stop-color="#40447E" offset="0"/>
<stop stop-color="#3C3B6B" offset="1"/>
</linearGradient>
<linearGradient id="f" x1="31.274" x2="33.208" y1="117.88" y2="117.88" gradientUnits="userSpaceOnUse">
<stop stop-color="#40447E" offset="0"/>
<stop stop-color="#3C3B6B" offset="1"/>
</linearGradient>
<linearGradient id="e" x1="51.696" x2="53.631" y1="115.42" y2="115.42" gradientUnits="userSpaceOnUse">
<stop stop-color="#40447E" offset="0"/>
<stop stop-color="#3C3B6B" offset="1"/>
</linearGradient>
<linearGradient id="d" x1="85.426" x2="86.739" y1="114.38" y2="116.52" gradientUnits="userSpaceOnUse">
<stop stop-color="#444B8C" offset="0"/>
<stop stop-color="#26264F" offset="1"/>
</linearGradient>
<linearGradient id="c" x1="86.228" x2="87.127" y1="114.53" y2="116.15" gradientUnits="userSpaceOnUse">
<stop stop-color="#444B8C" offset="0"/>
<stop stop-color="#26264F" offset="1"/>
</linearGradient>
<linearGradient id="b" x1="73.995" x2="75.578" y1="115.73" y2="117.44" gradientUnits="userSpaceOnUse">
<stop stop-color="#444B8C" offset="0"/>
<stop stop-color="#26264F" offset="1"/>
</linearGradient>
<linearGradient id="a" x1="73.631" x2="74.656" y1="115.71" y2="117.75" gradientUnits="userSpaceOnUse">
<stop stop-color="#444B8C" offset="0"/>
<stop stop-color="#26264F" offset="1"/>
</linearGradient>
</defs>
</svg>
